<svg xmlns="http://www.w3.org/2000/svg" width="22.133" height="23.2" viewBox="0 0 22.133 23.2">
  <g id="Madhya_Pradesh" data-name="Madhya Pradesh" transform="translate(-0.609 0.228)">
    <path id="Path_869" data-name="Path 869" d="M20.348,17.213v-4.49h.714v-.748h-.714v-1.5h-.714V7.484h.714V6.735h-.5a1.914,1.914,0,0,0,.143-.718A1.85,1.85,0,0,0,19.213,4.5a1.749,1.749,0,0,1-.574-.682l-.076-.16V2.619h-.714V3.654l-.076.159A1.754,1.754,0,0,1,17.2,4.5a1.851,1.851,0,0,0-.778,1.523,1.912,1.912,0,0,0,.143.718h-.5v.748h.714v2.994h-.357v-.438a1.144,1.144,0,0,0-.314-.794l-.757-.794-.714.748-.28-.293.045-.094a2.436,2.436,0,0,0,.235-1.042,2.32,2.32,0,0,0-1.52-2.21,6.333,6.333,0,0,1-1.308-.638,1.144,1.144,0,0,0,.329-.806,1.119,1.119,0,0,0-.714-1.054V1.871h.714V1.123h-.714V0h-.714V1.123H10v.748h.714V3.062A1.119,1.119,0,0,0,10,4.116a1.144,1.144,0,0,0,.328.806,6.324,6.324,0,0,1-1.308.638A2.321,2.321,0,0,0,7.5,7.771a2.436,2.436,0,0,0,.235,1.042l.045.094L7.5,9.2l-.714-.748-.757.794a1.142,1.142,0,0,0-.314.794v.438H5.355V7.484h.714V6.735h-.5a1.914,1.914,0,0,0,.143-.718A1.85,1.85,0,0,0,4.934,4.5a1.749,1.749,0,0,1-.574-.682l-.076-.16V2.619H3.57V3.654l-.076.159a1.754,1.754,0,0,1-.574.682,1.851,1.851,0,0,0-.778,1.523,1.914,1.914,0,0,0,.143.718h-.5v.748H2.5v2.994H1.785v1.5H1.071v.748h.714v4.49H0V23.2H22.133V17.213Zm-.714,0h-3.57v-4.49h3.57Zm-8.652-4.49-1.428.748a1.872,1.872,0,0,0-.987,1.673v2.068H6.782v-4.49ZM9.3,14.968a1.112,1.112,0,0,1,.578-.827l1.193-.625,1.193.625a1.112,1.112,0,0,1,.578.827Zm-.014.748H10v1.5H9.281Zm1.428,0h.714v1.5h-.714Zm1.428,0h.714v1.5h-.714Zm.441-2.245-1.428-.748h4.2v4.49H13.565V15.144a1.872,1.872,0,0,0-.987-1.673ZM17.244,6.5a1.122,1.122,0,0,1-.109-.483,1.093,1.093,0,0,1,.459-.9,2.477,2.477,0,0,0,.611-.622,2.465,2.465,0,0,0,.611.622,1.093,1.093,0,0,1,.459.9,1.125,1.125,0,0,1-.109.484l-.111.234h-1.7Zm.248.983H18.92v2.994H17.492ZM15.1,9.774l.252-.265.252.265a.382.382,0,0,1,.1.265v.438h-.714v-.438A.382.382,0,0,1,15.1,9.774ZM8.21,9.51l.252.265a.382.382,0,0,1,.1.265v.438H7.853v-.438a.382.382,0,0,1,.1-.265Zm1.071.529a.382.382,0,0,1,.1-.265l.252-.265.252.265a.382.382,0,0,1,.1.265v.438H9.281Zm1.785-4.1a2.812,2.812,0,0,0,.493.72,2.1,2.1,0,0,1,.578,1.462v.7L11.78,9.2l-.714-.748-.714.748L10,8.826v-.7a2.1,2.1,0,0,1,.578-1.462A2.818,2.818,0,0,0,11.066,5.939Zm-.357,4.1a.382.382,0,0,1,.1-.265l.252-.265.252.265a.382.382,0,0,1,.1.265v.438h-.714Zm1.428,0a.382.382,0,0,1,.1-.265l.252-.265.252.265a.382.382,0,0,1,.1.265v.438h-.714Zm1.428,0a.382.382,0,0,1,.1-.265l.252-.265.252.265a.382.382,0,0,1,.1.265v.438h-.714Zm.357-2.268a1.651,1.651,0,0,1-.159.707l-.134.281-.421.44-.357-.374v-.7a2.869,2.869,0,0,0-.787-1.991,2.033,2.033,0,0,1-.271-.357,7.007,7.007,0,0,0,1.1.5,1.574,1.574,0,0,1,1.031,1.5ZM11.066,3.742a.375.375,0,1,1-.357.374A.366.366,0,0,1,11.066,3.742ZM9.242,6.271a7.007,7.007,0,0,0,1.1-.5,2.052,2.052,0,0,1-.271.357,2.868,2.868,0,0,0-.787,1.991v.7L8.924,9.2,8.5,8.759,8.37,8.477a1.645,1.645,0,0,1-.159-.706,1.574,1.574,0,0,1,1.032-1.5ZM6.426,10.039a.382.382,0,0,1,.1-.265l.252-.265.252.265a.382.382,0,0,1,.1.265v.438H6.426ZM2.965,6.5a1.122,1.122,0,0,1-.109-.483,1.093,1.093,0,0,1,.459-.9A2.477,2.477,0,0,0,3.927,4.5a2.465,2.465,0,0,0,.611.622,1.093,1.093,0,0,1,.459.9,1.125,1.125,0,0,1-.109.484l-.111.234h-1.7Zm.248.983H4.641v2.994H3.213ZM2.5,11.226H19.634v.748H2.5Zm0,1.5h3.57v4.49H2.5Zm18.92,5.239v2.994h-5v-.5a1.905,1.905,0,0,0-.523-1.323l-.905-.949-.905.949a1.907,1.907,0,0,0-.523,1.323v.5h-.714v-1.5H9.281v1.5H8.567v-.5a1.905,1.905,0,0,0-.523-1.323l-.905-.949-.905.949a1.907,1.907,0,0,0-.523,1.323v.5h-5V17.961ZM2.856,21.7v.748H2.142V21.7Zm.714,0h.714v.748H3.57ZM5,21.7h.714v.748H5Zm1.428-.748H7.853v1.5H6.426Zm.029-.748a1.144,1.144,0,0,1,.285-.548l.4-.42.4.42a1.147,1.147,0,0,1,.285.548Zm2.113,1.5h.714v.748H8.567Zm3.57-.748H10v-.748h2.142ZM10,21.7h.714v.748H10Zm1.428,0h.714v.748h-.714Zm1.428,0h.714v.748h-.714Zm1.428-.748h1.428v1.5H14.279Zm.029-.748a1.144,1.144,0,0,1,.285-.548l.4-.42.4.42a1.147,1.147,0,0,1,.285.548Zm2.113,1.5h.714v.748h-.714Zm1.428,0h.714v.748h-.714Zm1.428,0h.714v.748h-.714ZM.714,21.7h.714v.748H.714Zm19.991.748V21.7h.714v.748Zm0,0" transform="translate(0.609 -0.228)" fill="#555d67"/>
    <path id="Path_870" data-name="Path 870" d="M72,296v2h2.174v-2Zm1.449,1.333h-.725v-.667h.725Zm0,0" transform="translate(-68.391 -282.228)" fill="#555d67"/>
    <path id="Path_871" data-name="Path 871" d="M378.174,298v-2H376v2Zm-1.449-1.333h.725v.667h-.725Zm0,0" transform="translate(-358.623 -282.228)" fill="#555d67"/>
  </g>
</svg>
