<svg xmlns="http://www.w3.org/2000/svg" width="19.403" height="23" viewBox="0 0 19.403 23">
  <path id="Bihar" d="M27.345,10.206a.314.314,0,0,0,.314-.314V8.275H28.2a1.214,1.214,0,0,0,1.213-1.213v-.5a.314.314,0,0,0-.314-.314H25.683v-1.3h.764A1.214,1.214,0,0,0,27.659,3.73v-.5a.314.314,0,0,0-.314-.314H22.861L21.525.746A1.583,1.583,0,0,0,20.186,0h-.952A1.563,1.563,0,0,0,17.9.746L16.558,2.913H12.074a.315.315,0,0,0-.314.314v.5a1.214,1.214,0,0,0,1.213,1.213h.764v1.3H10.322a.315.315,0,0,0-.314.314v.5a1.214,1.214,0,0,0,1.213,1.213h.539V9.892a.314.314,0,0,0,.314.314h.946v6.9h-.227a1.034,1.034,0,0,0-1.033,1.033v2.3H11.4a1.394,1.394,0,0,0-1.393,1.393v.853a.315.315,0,0,0,.314.314H29.1a.314.314,0,0,0,.314-.314v-.854a1.394,1.394,0,0,0-1.393-1.393h-.359v-2.3a1.034,1.034,0,0,0-1.033-1.033H26.4v-6.9ZM18.431,1.077a.938.938,0,0,1,.8-.448h.952a.949.949,0,0,1,.8.448l1.134,1.837H17.3ZM12.389,3.73V3.542H27.031V3.73a.585.585,0,0,1-.584.584H12.973a.585.585,0,0,1-.584-.584Zm1.977,1.213H25.054v1.3H14.365ZM10.637,7.062V6.874H28.782v.188a.585.585,0,0,1-.584.584H11.221a.585.585,0,0,1-.584-.584Zm1.752,1.213H27.031v1.3H12.389Zm1.261,1.969h.771v6.865H13.65Zm-1.261,7.9a.4.4,0,0,1,.4-.4h2.484a.4.4,0,0,1,.4.4v.367H12.389Zm16.394,3.691v.539H10.637v-.539a.765.765,0,0,1,.764-.764H28.019a.765.765,0,0,1,.764.763ZM12.389,20.44v-1.3H27.031v1.3Zm14.642-2.3v.367H23.738v-.367a.4.4,0,0,1,.4-.4h2.484a.4.4,0,0,1,.4.4ZM25,17.109V10.243h.771v6.865Zm-.629,0h-.227a1.034,1.034,0,0,0-1.033,1.033v.367h-6.8v-.367a1.034,1.034,0,0,0-1.033-1.033H15.05v-6.9h9.32Z" transform="translate(-10.008 0)" fill="#555d67"/>
</svg>
