<svg xmlns="http://www.w3.org/2000/svg" width="22.919" height="23" viewBox="0 0 22.919 23">
  <g id="Jharkhand" transform="translate(-1 -0.78)">
    <path id="Path_1188" data-name="Path 1188" d="M22.44,20.823a1.479,1.479,0,0,0-1.479-1.479H19.608a5.822,5.822,0,0,1-2.344-4.658V13.8a3.327,3.327,0,0,0-1.109-2.473v-.854a1.479,1.479,0,0,0-1.109-1.427V8.624a1.109,1.109,0,0,0-.8-1.061L12.829,1.15a.37.37,0,0,0-.739,0L10.674,7.563a1.109,1.109,0,0,0-.8,1.061v.421a1.479,1.479,0,0,0-1.109,1.427v.854A3.327,3.327,0,0,0,7.654,13.8v.887A5.822,5.822,0,0,1,5.31,19.344H3.957a1.479,1.479,0,0,0-1.479,1.479A1.479,1.479,0,0,0,1,22.3V23.41a.37.37,0,0,0,.37.37H23.549a.37.37,0,0,0,.37-.37V22.3A1.479,1.479,0,0,0,22.44,20.823ZM12.459,2.935l1.017,4.58H11.443ZM10.981,8.254h2.957a.37.37,0,0,1,.37.37v.37h-3.7v-.37A.37.37,0,0,1,10.981,8.254ZM9.5,10.472a.739.739,0,0,1,.739-.739h4.436a.739.739,0,0,1,.739.739v.37a3.327,3.327,0,0,0-1.479-.37H10.981a3.327,3.327,0,0,0-1.479.37ZM8.393,14.686V13.8a2.588,2.588,0,0,1,2.588-2.588h2.957A2.588,2.588,0,0,1,16.526,13.8v.887a6.561,6.561,0,0,0,1.952,4.658h-3.43V16.938a2.588,2.588,0,0,0-.739-1.848L12.74,13.518a.37.37,0,0,0-.525,0l-1.567,1.571a2.588,2.588,0,0,0-.758,1.848v2.406H6.441A6.561,6.561,0,0,0,8.393,14.686ZM13.2,19.344H11.72V17.152a1.479,1.479,0,0,1,.432-1.046l.307-.307.307.307a1.5,1.5,0,0,1,.432,1.046Zm.089-3.759-.566-.569a.37.37,0,0,0-.525,0l-.566.569a2.192,2.192,0,0,0-.651,1.567v2.192h-.37V16.938a1.848,1.848,0,0,1,.54-1.29l1.309-1.327,1.309,1.327a1.848,1.848,0,0,1,.54,1.29v2.406h-.37V17.152a2.192,2.192,0,0,0-.651-1.567Zm-9.33,4.5h17a.739.739,0,0,1,.739.739H3.218A.739.739,0,0,1,3.957,20.083Zm19.222,2.957H1.739V22.3a.739.739,0,0,1,.739-.739H22.44a.739.739,0,0,1,.739.739Z" transform="translate(0)" fill="#555d67"/>
  </g>
</svg>
