<svg xmlns="http://www.w3.org/2000/svg" width="18.196" height="23" viewBox="0 0 18.196 23">
  <path id="Maharashtra" d="M71.147,21.023H70.023V15.831a1.087,1.087,0,0,0-.337-2.121H67.663L66.7,7.275A4.219,4.219,0,0,0,62.9,3.732V2.707l2.212-1.649A.579.579,0,0,0,65.32.4a.579.579,0,0,0-.557-.4h-2.2a.337.337,0,0,0-.337.337V3.731a4.176,4.176,0,0,0-.642.1.337.337,0,0,0,.158.655,3.508,3.508,0,0,1,3.106.751H60.28a3.526,3.526,0,0,1,.451-.33.337.337,0,1,0-.353-.574,4.171,4.171,0,0,0-1.944,2.939l-.966,6.436H55.444a1.087,1.087,0,0,0-.337,2.121v5.192H53.984a.517.517,0,0,0-.517.517v.449A.948.948,0,0,0,54.333,23H70.8a.948.948,0,0,0,.866-1.011V21.54a.517.517,0,0,0-.517-.517ZM62.9.674h1.6L62.9,1.866Zm3.134,6.74.2,1.3h-.592a.337.337,0,1,0,0,.674h.693l.35,2.327H66.1a.337.337,0,0,0,0,.674h.682l.2,1.321h-2L64.8,12.029h0l-.5-4.614h1.736ZM63.836,9.4l.251,2.327H61.043L61.294,9.4Zm-2.47-.674.141-1.311h2.115l.141,1.311ZM64.159,12.4,64.3,13.71H60.83l.141-1.311ZM59.676,5.913h5.778a3.505,3.505,0,0,1,.419.827H59.257a3.5,3.5,0,0,1,.418-.827Zm-1.328,6.476h.682a.337.337,0,1,0,0-.674h-.581l.35-2.327h.682a.337.337,0,0,0,0-.674H58.9l.2-1.3H60.83l-.5,4.614h0l-.181,1.682h-2ZM55.03,14.8a.414.414,0,0,1,.413-.413H69.686a.413.413,0,0,1,0,.827h-4a.337.337,0,0,0,0,.674h.348v5.139h-1.5V17.549a.838.838,0,0,0-.837-.837H61.429a.838.838,0,0,0-.837.837v3.475H59.1V15.885h5.244a.337.337,0,0,0,0-.674h-8.9A.414.414,0,0,1,55.03,14.8Zm14.319,1.087v5.139h-.827V15.885Zm-2.641,3.828v-.827h1.14v.827Zm1.14.674v.637h-1.14v-.637Zm-1.14-2.174v-.827h1.14v.827Zm0-1.5v-.827h1.14v.827Zm-2.844.837v3.475h-2.6V17.549a.163.163,0,0,1,.163-.163H63.7A.164.164,0,0,1,63.865,17.549Zm-6.583,2.164v-.827h1.14v.827Zm1.14.674v.637h-1.14v-.637Zm-1.14-2.174v-.827h1.14v.827Zm0-1.5v-.827h1.14v.827Zm-.674-.827v5.139h-.827V15.885Zm14.382,6.1c0,.206-.114.337-.192.337H54.333c-.078,0-.192-.131-.192-.337V21.7H70.989Z" transform="translate(-53.467 0)" fill="#555d67"/>
</svg>
